<svg xmlns="http://www.w3.org/2000/svg" version="1.1" xmlns:xlink="http://www.w3.org/1999/xlink" xmlns:svgjs="http://svgjs.dev/svgjs" viewBox="0 0 10.610062210196581 3.5766572195150954"><g transform="matrix(0.7515748105597609,0,0,0.7515748105597609,3.2335823544486293,1.3593672866305642)"><rect width="11.79228882933922" height="11.79228882933922" x="-3.139999954337206" y="-5.32539441466961" fill="#ffffff"></rect><g transform="matrix(1,0,0,1,0,0)" clip-path="url(#SvgjsClipPath15752)"><g clip-path="url(#SvgjsClipPath15747c7970fdb-18d4-4340-9697-22f54649792f)"><path d=" M -0.9430623815606034 0.9871083807835161 L -0.9444032473726296 0.8570013954893141 L -0.9442273320328591 0.856809843230453 L -0.9447628965117179 0.800810126736869 L -0.9536368480956905 -0.40886193411999083 L -0.9538205818950081 -0.40886193411999083 L -0.954942530839765 -0.5169013173474369 L -1.1495713535319836 -0.6264653001862279 L -1.137452741236689 0.8775522164042717 L -0.9428630108421956 0.9871083807835166 Z M -0.40017982456954404 1.2927827843983697 L -0.4015245996113439 1.162664071414849 L -0.40129786428452974 1.162484246845306 L -0.40188424875042994 1.1064767118921772 L -0.4107582003344048 -0.10318362127536584 L -0.4109380249039467 -0.10318362127536584 L -0.4120560646189322 -0.21123473219213046 L -0.6066927057706979 -0.3207869873416029 L -0.5945740934754034 1.1832188015595781 L -0.3999843630809099 1.2927827843983681 Z M -0.6715390092398479 1.1400413587203733 L -0.6728329642946038 1.0099226457368524 L -0.672660958184607 1.009742821167309 L -0.6732395241909623 0.9537313769844076 L -0.6820743834772118 -0.2559289561831343 L -0.6822502988169825 -0.2559289561831343 L -0.6834230677487854 -0.36398006709989894 L -0.8780049796837337 -0.47353232224937136 L -0.8659489150648016 1.0304734666518092 L -0.671320092372583 1.1400413587203722 Z" fill="#343432" transform="matrix(1,0,0,1,0,0)" fill-rule="nonzero"></path></g><g clip-path="url(#SvgjsClipPath15747c7970fdb-18d4-4340-9697-22f54649792f)"><path d=" M -1.9517257567362365 1.3059881625704692 L -1.9524802380823647 1.1692823974199897 L -1.9526639718816803 1.169079117471811 L -1.9530548948589463 1.1130794009782272 L -1.9573550476088892 0.4836425875903474 L -1.9571830414988924 0.4836425875903474 L -1.95776160750525 0.3755875674438096 L -1.765009215103914 0.26300174999074166 L -1.7591844627426294 1.1909356211308424 L -1.851973940626866 1.2450589073335419 L -1.0520634353121314 1.7138459232133014 L -1.1122225722838412 1.7490993573032938 L -1.1444502625297832 1.7679496632671379 C -1.4678647508530425 1.5840985870581852 -1.628874197500247 1.4903943494071417 -1.9520736781860084 1.3059686164216062 Z M -1.413956472287837 0.9916352688602745 L -1.4146640428766906 0.8549295037097948 L -1.4148946874332806 0.8547418606807062 L -1.4152543365723667 0.7987304164978049 L -1.4195974908498084 0.16928969388015203 L -1.419421575510038 0.16928969388015203 L -1.4199571399888966 0.061238582963387356 L -1.2272321121959675 -0.051519240599678606 L -1.2213682675369553 0.87642635822974 L -1.3141577454211921 0.9305379167431214 L -0.5142472401064573 1.3993249326228816 L -0.5744063770781673 1.4345900944021914 L -0.6066809780813793 1.4534521280553534 C -0.9300446464175927 1.2695893241570833 -1.0911049130518453 1.1758694495869495 -1.4143004845078309 0.991455444290732 Z M -1.6828137499036282 1.1487159395859412 L -1.683576049709301 1.0120101744354617 L -1.6837519650490718 1.0118186221766006 L -1.6839826096056596 0.9558228149127892 L -1.6882827623556027 0.32637036460581825 L -1.6881107562456057 0.32637036460581825 L -1.6886893222519632 0.21833098137837226 L -1.4959369298506298 0.10556143012598762 L -1.4901121774893427 1.0335031197256344 L -1.5829016553735793 1.0876224966985613 L -0.7829911500588447 1.5564056033485483 L -0.8431502870305547 1.5916707651278585 L -0.8753779772764965 1.6105210710917022 C -1.1987924655997535 1.4266660856529776 -1.3598097307065053 1.3329657572317064 -1.6830013929327217 1.1485282965568526 Z" fill="#343432" transform="matrix(1,0,0,1,0,0)" fill-rule="nonzero"></path></g></g><g><path d=" M 0.12 0.1589999999999997 Q 0.093 0.13199999999999967 0.093 0.09299999999999975 Q 0.093 0.053999999999999604 0.12 0.02699999999999969 Q 0.147 -2.220446049250313e-16 0.186 -2.220446049250313e-16 Q 0.2235 -2.220446049250313e-16 0.24975 0.02699999999999969 Q 0.276 0.053999999999999604 0.276 0.09299999999999975 Q 0.276 0.13199999999999967 0.24975 0.1589999999999997 Q 0.2235 0.18599999999999972 0.186 0.18599999999999972 Q 0.147 0.18599999999999972 0.12 0.1589999999999997 M 0.252 0.3194999999999997 L 0.252 1.1414999999999997 L 0.1155 1.1414999999999997 L 0.1155 0.3194999999999997 L 0.252 0.3194999999999997 M 0.48445751953125005 0.5062499999999998 Q 0.5354575195312501 0.4109999999999997 0.6247075195312501 0.3584999999999997 Q 0.7139575195312501 0.3059999999999997 0.8249575195312501 0.3059999999999997 Q 0.92095751953125 0.3059999999999997 1.00345751953125 0.35024999999999973 Q 1.08595751953125 0.39449999999999974 1.1294575195312502 0.4664999999999997 L 1.1294575195312502 0.03149999999999964 L 1.26745751953125 0.03149999999999964 L 1.26745751953125 1.1414999999999997 L 1.1294575195312502 1.1414999999999997 L 1.1294575195312502 0.9869999999999998 Q 1.08895751953125 1.0604999999999998 1.00945751953125 1.1077499999999998 Q 0.9299575195312502 1.1549999999999998 0.8234575195312501 1.1549999999999998 Q 0.7139575195312501 1.1549999999999998 0.6247075195312501 1.1009999999999998 Q 0.5354575195312501 1.0469999999999997 0.48445751953125005 0.9494999999999998 Q 0.43345751953125006 0.8519999999999998 0.43345751953125006 0.7274999999999997 Q 0.43345751953125006 0.6014999999999997 0.48445751953125005 0.5062499999999998 M 1.09195751953125 0.5669999999999997 Q 1.05445751953125 0.4979999999999998 0.99070751953125 0.4612499999999997 Q 0.92695751953125 0.42449999999999977 0.85045751953125 0.42449999999999977 Q 0.77395751953125 0.42449999999999977 0.7109575195312501 0.4604999999999997 Q 0.6479575195312501 0.4964999999999997 0.61045751953125 0.5654999999999997 Q 0.5729575195312501 0.6344999999999997 0.5729575195312501 0.7274999999999997 Q 0.5729575195312501 0.8219999999999997 0.61045751953125 0.8917499999999997 Q 0.6479575195312501 0.9614999999999998 0.7109575195312501 0.9982499999999997 Q 0.77395751953125 1.0349999999999997 0.85045751953125 1.0349999999999997 Q 0.92695751953125 1.0349999999999997 0.99070751953125 0.9982499999999997 Q 1.05445751953125 0.9614999999999998 1.09195751953125 0.8917499999999997 Q 1.1294575195312502 0.8219999999999997 1.1294575195312502 0.7289999999999996 Q 1.1294575195312502 0.6359999999999997 1.09195751953125 0.5669999999999997 M 2.2439956054687498 0.7814999999999998 L 1.58699560546875 0.7814999999999998 Q 1.59449560546875 0.9029999999999997 1.67024560546875 0.9712499999999997 Q 1.74599560546875 1.0394999999999996 1.85399560546875 1.0394999999999996 Q 1.9424956054687499 1.0394999999999996 2.00174560546875 0.9982499999999997 Q 2.06099560546875 0.9569999999999997 2.08499560546875 0.8879999999999997 L 2.23199560546875 0.8879999999999997 Q 2.19899560546875 1.0064999999999997 2.09999560546875 1.0807499999999997 Q 2.00099560546875 1.1549999999999998 1.85399560546875 1.1549999999999998 Q 1.73699560546875 1.1549999999999998 1.64474560546875 1.1024999999999998 Q 1.55249560546875 1.0499999999999998 1.49999560546875 0.9532499999999997 Q 1.44749560546875 0.8564999999999997 1.44749560546875 0.7289999999999996 Q 1.44749560546875 0.6014999999999997 1.49849560546875 0.5054999999999997 Q 1.54949560546875 0.40949999999999975 1.64174560546875 0.3577499999999997 Q 1.73399560546875 0.3059999999999997 1.85399560546875 0.3059999999999997 Q 1.97099560546875 0.3059999999999997 2.06099560546875 0.35699999999999976 Q 2.15099560546875 0.4079999999999997 2.19974560546875 0.49724999999999975 Q 2.24849560546875 0.5864999999999997 2.24849560546875 0.6989999999999997 Q 2.24849560546875 0.7379999999999998 2.2439956054687498 0.7814999999999998 M 2.07299560546875 0.5362499999999997 Q 2.03849560546875 0.47999999999999976 1.97924560546875 0.45074999999999976 Q 1.91999560546875 0.42149999999999976 1.84799560546875 0.42149999999999976 Q 1.74449560546875 0.42149999999999976 1.67174560546875 0.4874999999999997 Q 1.59899560546875 0.5534999999999998 1.58849560546875 0.6704999999999997 L 2.10749560546875 0.6704999999999997 Q 2.10749560546875 0.5924999999999997 2.07299560546875 0.5362499999999997 M 2.42848828125 0.5062499999999998 Q 2.47948828125 0.4109999999999997 2.56873828125 0.3584999999999997 Q 2.65798828125 0.3059999999999997 2.76748828125 0.3059999999999997 Q 2.87548828125 0.3059999999999997 2.95498828125 0.3524999999999997 Q 3.03448828125 0.3989999999999997 3.07348828125 0.4694999999999997 L 3.07348828125 0.3194999999999997 L 3.21148828125 0.3194999999999997 L 3.21148828125 1.1414999999999997 L 3.07348828125 1.1414999999999997 L 3.07348828125 0.9884999999999997 Q 3.0329882812499998 1.0604999999999998 2.9527382812500003 1.1077499999999998 Q 2.87248828125 1.1549999999999998 2.76598828125 1.1549999999999998 Q 2.65648828125 1.1549999999999998 2.56798828125 1.1009999999999998 Q 2.47948828125 1.0469999999999997 2.42848828125 0.9494999999999998 Q 2.37748828125 0.8519999999999998 2.37748828125 0.7274999999999997 Q 2.37748828125 0.6014999999999997 2.42848828125 0.5062499999999998 M 3.03598828125 0.5669999999999997 Q 2.99848828125 0.4979999999999998 2.93473828125 0.4612499999999997 Q 2.87098828125 0.42449999999999977 2.79448828125 0.42449999999999977 Q 2.7179882812500002 0.42449999999999977 2.65498828125 0.4604999999999997 Q 2.59198828125 0.4964999999999997 2.55448828125 0.5654999999999997 Q 2.51698828125 0.6344999999999997 2.51698828125 0.7274999999999997 Q 2.51698828125 0.8219999999999997 2.55448828125 0.8917499999999997 Q 2.59198828125 0.9614999999999998 2.65498828125 0.9982499999999997 Q 2.7179882812500002 1.0349999999999997 2.79448828125 1.0349999999999997 Q 2.87098828125 1.0349999999999997 2.93473828125 0.9982499999999997 Q 2.99848828125 0.9614999999999998 3.03598828125 0.8917499999999997 Q 3.07348828125 0.8219999999999997 3.07348828125 0.7289999999999996 Q 3.07348828125 0.6359999999999997 3.03598828125 0.5669999999999997 M 3.5640263671875 1.1227499999999997 Q 3.4890263671875 1.0904999999999998 3.4455263671875 1.0327499999999998 Q 3.4020263671875 0.9749999999999998 3.3975263671875 0.8999999999999997 L 3.5385263671875 0.8999999999999997 Q 3.5445263671875 0.9614999999999998 3.5962763671875 1.0004999999999997 Q 3.6480263671875 1.0394999999999996 3.7320263671875002 1.0394999999999996 Q 3.8100263671875 1.0394999999999996 3.8550263671875 1.0049999999999997 Q 3.9000263671875 0.9704999999999997 3.9000263671875 0.9179999999999997 Q 3.9000263671875 0.8639999999999997 3.8520263671875 0.8377499999999998 Q 3.8040263671875 0.8114999999999997 3.7035263671875 0.7859999999999998 Q 3.6120263671875 0.7619999999999998 3.5542763671875 0.7372499999999997 Q 3.4965263671875 0.7124999999999997 3.4552763671875 0.6637499999999997 Q 3.4140263671875 0.6149999999999998 3.4140263671875 0.5354999999999998 Q 3.4140263671875 0.4724999999999997 3.4515263671875 0.4199999999999997 Q 3.4890263671875 0.3674999999999997 3.5580263671875 0.33674999999999977 Q 3.6270263671875 0.3059999999999997 3.7155263671875 0.3059999999999997 Q 3.8520263671875 0.3059999999999997 3.9360263671875 0.37499999999999967 Q 4.0200263671875 0.44399999999999973 4.0260263671875 0.5639999999999997 L 3.8895263671875 0.5639999999999997 Q 3.8850263671875 0.4994999999999997 3.8377763671875 0.4604999999999997 Q 3.7905263671875 0.42149999999999976 3.7110263671875 0.42149999999999976 Q 3.6375263671875 0.42149999999999976 3.5940263671875 0.45299999999999974 Q 3.5505263671875 0.4844999999999997 3.5505263671875 0.5354999999999998 Q 3.5505263671875 0.5759999999999997 3.5767763671875 0.6022499999999997 Q 3.6030263671875 0.6284999999999997 3.6427763671875 0.6442499999999998 Q 3.6825263671875 0.6599999999999997 3.7530263671875 0.6794999999999998 Q 3.8415263671875 0.7034999999999998 3.8970263671875003 0.7267499999999998 Q 3.9525263671875 0.7499999999999998 3.9922763671875 0.7964999999999998 Q 4.0320263671875 0.8429999999999997 4.0335263671875 0.9179999999999997 Q 4.0335263671875 0.9854999999999997 3.9960263671875 1.0394999999999996 Q 3.9585263671875 1.0934999999999997 3.8902763671875 1.1242499999999997 Q 3.8220263671875 1.1549999999999998 3.7335263671875 1.1549999999999998 Q 3.6390263671875 1.1549999999999998 3.5640263671875 1.1227499999999997 M 4.4827353515625 0.35324999999999973 Q 4.5629853515625 0.3059999999999997 4.6694853515625 0.3059999999999997 Q 4.7789853515625005 0.3059999999999997 4.8682353515625 0.3584999999999997 Q 4.9574853515625 0.4109999999999997 5.0084853515625 0.5062499999999998 Q 5.0594853515625005 0.6014999999999997 5.0594853515625005 0.7274999999999997 Q 5.0594853515625005 0.8519999999999998 5.0084853515625 0.9494999999999998 Q 4.9574853515625 1.0469999999999997 4.8682353515625 1.1009999999999998 Q 4.7789853515625005 1.1549999999999998 4.6694853515625 1.1549999999999998 Q 4.5644853515625 1.1549999999999998 4.4842353515625 1.1077499999999998 Q 4.4039853515625 1.0604999999999998 4.3619853515625 0.9899999999999998 L 4.3619853515625 1.5314999999999999 L 4.2254853515625 1.5314999999999999 L 4.2254853515625 0.3194999999999997 L 4.3619853515625 0.3194999999999997 L 4.3619853515625 0.47099999999999975 Q 4.4024853515625 0.40049999999999975 4.4827353515625 0.35324999999999973 M 4.8824853515625 0.5654999999999997 Q 4.8449853515625 0.4964999999999997 4.7812353515625 0.4604999999999997 Q 4.7174853515625 0.42449999999999977 4.6409853515625 0.42449999999999977 Q 4.5659853515625 0.42449999999999977 4.5022353515625 0.4612499999999997 Q 4.4384853515625 0.4979999999999998 4.4002353515625 0.5677499999999998 Q 4.3619853515625 0.6374999999999997 4.3619853515625 0.7289999999999996 Q 4.3619853515625 0.8219999999999997 4.4002353515625 0.8917499999999997 Q 4.4384853515625 0.9614999999999998 4.5022353515625 0.9982499999999997 Q 4.5659853515625 1.0349999999999997 4.6409853515625 1.0349999999999997 Q 4.7174853515625 1.0349999999999997 4.7812353515625 0.9982499999999997 Q 4.8449853515625 0.9614999999999998 4.8824853515625 0.8917499999999997 Q 4.9199853515625005 0.8219999999999997 4.9199853515625005 0.7274999999999997 Q 4.9199853515625005 0.6344999999999997 4.8824853515625 0.5654999999999997 M 5.2395234375 0.5062499999999998 Q 5.2905234375 0.4109999999999997 5.3797734375 0.3584999999999997 Q 5.4690234375 0.3059999999999997 5.5785234375 0.3059999999999997 Q 5.6865234375 0.3059999999999997 5.7660234375 0.3524999999999997 Q 5.8455234375 0.3989999999999997 5.8845234375 0.4694999999999997 L 5.8845234375 0.3194999999999997 L 6.0225234375 0.3194999999999997 L 6.0225234375 1.1414999999999997 L 5.8845234375 1.1414999999999997 L 5.8845234375 0.9884999999999997 Q 5.8440234375 1.0604999999999998 5.7637734375 1.1077499999999998 Q 5.6835234375 1.1549999999999998 5.5770234375 1.1549999999999998 Q 5.4675234375 1.1549999999999998 5.3790234375 1.1009999999999998 Q 5.2905234375 1.0469999999999997 5.2395234375 0.9494999999999998 Q 5.1885234375 0.8519999999999998 5.1885234375 0.7274999999999997 Q 5.1885234375 0.6014999999999997 5.2395234375 0.5062499999999998 M 5.8470234375 0.5669999999999997 Q 5.8095234375 0.4979999999999998 5.7457734375000005 0.4612499999999997 Q 5.6820234375 0.42449999999999977 5.6055234375 0.42449999999999977 Q 5.5290234375 0.42449999999999977 5.4660234375 0.4604999999999997 Q 5.4030234375 0.4964999999999997 5.3655234375 0.5654999999999997 Q 5.3280234375 0.6344999999999997 5.3280234375 0.7274999999999997 Q 5.3280234375 0.8219999999999997 5.3655234375 0.8917499999999997 Q 5.4030234375 0.9614999999999998 5.4660234375 0.9982499999999997 Q 5.5290234375 1.0349999999999997 5.6055234375 1.0349999999999997 Q 5.6820234375 1.0349999999999997 5.7457734375000005 0.9982499999999997 Q 5.8095234375 0.9614999999999998 5.8470234375 0.8917499999999997 Q 5.8845234375 0.8219999999999997 5.8845234375 0.7289999999999996 Q 5.8845234375 0.6359999999999997 5.8470234375 0.5669999999999997 M 6.4928115234375 0.3434999999999997 Q 6.5595615234375 0.30449999999999977 6.6555615234375 0.30449999999999977 L 6.6555615234375 0.4454999999999997 L 6.6195615234375 0.4454999999999997 Q 6.3900615234375 0.4454999999999997 6.3900615234375 0.6944999999999997 L 6.3900615234375 1.1414999999999997 L 6.2535615234375 1.1414999999999997 L 6.2535615234375 0.3194999999999997 L 6.3900615234375 0.3194999999999997 L 6.3900615234375 0.45299999999999974 Q 6.4260615234375 0.38249999999999973 6.4928115234375 0.3434999999999997 M 7.2720402832031255 1.1414999999999997 L 6.949540283203125 0.7784999999999997 L 6.949540283203125 1.1414999999999997 L 6.813040283203125 1.1414999999999997 L 6.813040283203125 0.03149999999999964 L 6.949540283203125 0.03149999999999964 L 6.949540283203125 0.6839999999999997 L 7.266040283203125 0.3194999999999997 L 7.456540283203125 0.3194999999999997 L 7.069540283203125 0.7289999999999996 L 7.458040283203125 1.1414999999999997 L 7.2720402832031255 1.1414999999999997" fill="#343432" fill-rule="nonzero"></path></g><g></g></g><defs><clipPath id="SvgjsClipPath15752"><path d=" M -1.9577733351945663 -0.6264653001862279 h 1.5577733351945664 v 2.3944306003724556 h -1.5577733351945664 Z"></path></clipPath><clipPath id="SvgjsClipPath15747c7970fdb-18d4-4340-9697-22f54649792f"><path d=" M -1.9577733351945663 -0.6264653001862279 L -0.3999999999999999 -0.6264653001862279 L -0.3999999999999999 1.7679653001862277 L -1.9577733351945663 1.7679653001862277 Z"></path></clipPath></defs></svg>
